<?xml version="1.0" standalone="no"?>
<!DOCTYPE svg PUBLIC "-//W3C//DTD SVG 20010904//EN"
 "http://www.w3.org/TR/2001/REC-SVG-20010904/DTD/svg10.dtd">
<svg version="1.0" xmlns="http://www.w3.org/2000/svg"
 width="469.000000pt" height="469.000000pt" viewBox="0 0 469.000000 469.000000"
 preserveAspectRatio="xMidYMid meet">
<metadata>
Created by potrace 1.11, written by Peter Selinger 2001-2013
</metadata>
<g transform="translate(0.000000,469.000000) scale(0.100000,-0.100000)"
fill="#000000" stroke="none">
<path d="M1710 4600 c-20 -5 -43 -20 -55 -36 -52 -73 -88 -94 -190 -109 -156
-23 -284 -125 -370 -295 -34 -67 -77 -180 -69 -180 4 0 2 -6 -4 -12 -6 -7 -13
-33 -17 -58 -4 -24 -8 -47 -11 -51 -16 -27 -29 -328 -15 -376 7 -24 6 -35 -4
-43 -20 -16 -76 -106 -80 -127 -2 -10 -4 -18 -5 -18 -4 0 -12 -65 -13 -105 -1
-35 -6 -49 -28 -67 -120 -101 -49 -391 90 -371 31 5 34 2 50 -36 11 -26 19
-74 20 -131 7 -228 9 -274 16 -284 3 -6 1 -11 -5 -11 -6 0 -9 -4 -5 -9 3 -5 7
-28 9 -51 5 -48 45 -104 93 -131 17 -10 55 -20 84 -24 30 -4 55 -8 57 -10 2
-1 -4 -21 -13 -43 -28 -68 -71 -86 -255 -107 -14 -1 -27 -4 -30 -5 -3 -1 -8
-2 -12 -1 -13 1 -83 -34 -108 -54 -37 -30 -64 -73 -89 -140 -26 -70 -26 -68
-36 -160 -14 -127 -15 -177 -19 -568 -1 -213 -6 -390 -9 -393 -3 -4 0 -19 9
-35 8 -16 16 -42 18 -59 4 -33 22 -60 41 -60 6 0 17 -12 24 -26 10 -22 16 -25
40 -21 21 5 34 1 47 -14 12 -13 28 -19 48 -17 28 3 31 6 28 33 -8 75 -10 142
-5 162 l5 23 30 -25 c16 -14 35 -25 41 -26 7 0 22 -2 35 -5 14 -2 25 2 28 11
12 31 19 13 21 -53 3 -88 12 -194 22 -245 4 -23 6 -58 4 -77 -2 -19 -5 -57 -6
-85 l-2 -50 55 -2 c147 -4 531 -4 537 0 5 3 7 29 5 59 -2 54 -8 219 -12 361
-1 43 0 81 4 84 17 18 134 30 261 28 188 -4 230 -15 237 -64 2 -14 3 -126 3
-248 0 -123 2 -223 5 -224 3 -1 170 -2 373 -4 l367 -3 1 32 c2 56 1 131 -2
136 -1 3 -3 10 -4 15 -8 43 -61 104 -92 106 -58 5 -90 4 -106 -3 -16 -8 -17
-4 -12 49 5 61 15 243 19 353 1 36 6 76 11 90 4 14 8 160 9 325 l1 300 45 -3
c25 -1 56 -2 70 -1 14 0 31 0 38 0 29 -2 40 -2 87 4 68 8 100 13 103 15 1 1 7
4 12 5 6 1 11 3 13 4 1 2 12 4 25 7 13 2 36 11 53 19 16 9 29 13 29 11 0 -3
28 11 63 31 164 95 293 241 347 395 17 48 69 139 91 158 3 3 14 19 24 37 10
17 29 34 41 37 18 5 151 63 161 70 1 1 4 13 6 27 12 63 -41 72 -131 23 l-63
-35 4 31 c3 16 26 61 51 100 51 76 56 104 25 120 -38 21 -61 7 -116 -69 -48
-69 -78 -99 -89 -89 -5 6 23 87 47 134 22 44 25 87 7 101 -7 6 -25 13 -40 17
-22 5 -30 1 -46 -21 -11 -16 -23 -39 -27 -53 -19 -62 -69 -140 -90 -140 -6 0
-16 24 -23 52 -7 29 -22 63 -35 76 -29 29 -94 33 -113 8 -14 -20 -8 -46 11
-46 25 0 38 -32 40 -103 1 -45 9 -86 20 -109 18 -36 18 -39 -1 -80 -10 -24
-22 -47 -27 -53 -4 -5 -25 -37 -46 -71 -81 -128 -225 -205 -413 -220 -70 -6
-75 -5 -106 21 -17 14 -41 47 -51 71 -11 25 -26 51 -34 58 -32 33 -114 58
-192 60 -21 1 -33 8 -42 26 -13 27 -4 40 29 40 28 0 120 44 156 75 37 31 76
100 68 120 -2 7 -2 16 2 20 4 3 8 102 9 218 1 117 2 220 2 231 1 13 5 16 19
11 33 -15 104 -13 133 4 28 15 58 64 67 106 5 26 6 130 1 174 -4 37 -64 111
-90 111 -10 0 -14 14 -15 48 -1 26 -4 57 -7 70 -9 36 -63 124 -97 159 -29 30
-31 36 -27 87 3 30 8 59 11 65 4 5 2 13 -4 16 -7 4 -7 11 -2 18 25 33 -9 322
-50 431 -11 28 -20 56 -21 61 -2 6 -7 17 -12 25 -5 8 -10 20 -11 25 -2 15 -48
81 -86 125 -66 74 -165 136 -249 156 -19 4 -38 9 -44 11 -5 1 -31 7 -57 13
-26 6 -52 18 -59 26 -6 8 -17 14 -24 14 -11 0 -55 47 -75 80 -3 5 -23 13 -45
17 -53 12 -271 14 -315 3z m-637 -3352 c-10 -249 -8 -495 4 -510 10 -12 17
-64 14 -113 -1 -17 -7 -13 -36 20 -27 32 -33 46 -29 70 3 17 7 145 9 285 2
140 6 276 9 302 6 48 22 98 30 98 3 0 3 -69 -1 -152z"/>
</g>
</svg>
